<?xml version="1.0" standalone="no"?><!DOCTYPE svg PUBLIC "-//W3C//DTD SVG 1.1//EN" "http://www.w3.org/Graphics/SVG/1.1/DTD/svg11.dtd"><svg t="1689256357042" class="icon" viewBox="0 0 1024 1024" version="1.1" xmlns="http://www.w3.org/2000/svg" p-id="863" xmlns:xlink="http://www.w3.org/1999/xlink" width="200" height="200"><path d="M916.402423 396.448264c-21.263279 0-38.503942-17.238616-38.503942-38.503942 0-85.059258-68.954465-154.015769-154.013723-154.015769-21.265326 0-38.505989-17.238616-38.505989-38.503942 0-21.263279 17.23964-38.503942 38.505989-38.503942 127.58991 0 231.021607 103.434767 231.021607 231.023654C954.906365 379.209648 937.667749 396.448264 916.402423 396.448264zM718.357881 490.670206c52.093449 32.000831 82.757842 82.790588 82.757842 141.093459 0 128.125099-151.514809 265.314645-377.066845 265.314645-84.021625 0-165.42768-20.435425-229.246171-57.567113C113.742531 792.356222 69.093635 722.702839 69.093635 643.419122c0-78.041424 41.922808-161.346735 121.272018-240.930281 75.992765-76.162634 162.956396-121.632221 232.631268-121.632221 47.340191 0 77.138868 19.910469 93.739964 36.566824 9.119705 9.126868 20.155039 23.246447 27.656897 43.213197 11.279904-1.568728 22.203698-2.367931 32.637328-2.367931 70.069869 0 104.813161 34.790364 119.271454 55.499012C708.334597 431.008384 719.522404 456.407867 718.357881 490.670206zM643.810025 541.012777c-9.342786-2.800789-15.736403-4.718465-10.848069-17.014512 10.585079-26.677593 11.675924-49.708122 0.207731-66.122977-10.679223-15.303544-30.570249-22.597671-56.138578-22.597671-25.926486 0-57.719586 7.498788-91.671862 21.75242-0.038886 0-5.865591 2.547009-10.603499 2.547009-4.307096 0-7.747451-2.096754-5.170766-10.105149 10.380418-33.42732 8.81783-61.45977-7.330966-77.628008-9.458419-9.485025-22.975271-13.978363-39.257096-13.978363-46.721091 0-116.226095 36.990472-178.118724 99.015108-62.492286 62.680575-98.777701 129.10338-98.777701 186.53951 0 109.872387 140.496871 176.652326 277.95043 176.652326 180.204222 0 300.05896-104.965633 300.05896-188.30676C724.107839 581.39551 681.807431 552.819684 643.810025 541.012777zM743.136218 357.944322c0-10.633175-8.621355-19.25146-19.25146-19.25146-21.265326 0-38.505989-17.238616-38.505989-38.501896 0-21.265326 17.23964-38.505989 38.505989-38.505989 50.503231 0 91.460038 39.029922 95.476515 88.50166 0.511653 2.5071 0.781806 5.102205 0.781806 7.758708 0 21.265326-17.238616 38.503942-38.503942 38.503942C760.374834 396.448264 743.136218 379.209648 743.136218 357.944322z" fill="#ffffff" p-id="864"></path></svg>